<svg xmlns="http://www.w3.org/2000/svg" viewBox="0 0 1200 750">
  <defs>
    <linearGradient id="bg" x1="0" y1="1" x2="1" y2="0">
      <stop stop-color="#070708"/><stop offset="1" stop-color="#141318"/>
    </linearGradient>
  </defs>
  <rect width="1200" height="750" fill="url(#bg)"/>
  <rect x="64" y="64" width="1072" height="622" rx="18" fill="none" stroke="#fff" stroke-opacity=".12"/>
  <g transform="translate(96 92)">
    <rect width="54" height="54" rx="12" fill="#B18D43"/>
    <path d="M15 17h24M15 27h18M15 37h11" stroke="#080809" stroke-width="4" stroke-linecap="round"/>
  </g>
  <text x="174" y="130" fill="#f6f2ea" font-family="Arial, sans-serif" font-size="27" font-weight="600">ROUTE ACADEMY</text>
  <text x="96" y="256" fill="#f6f2ea" font-family="Arial, sans-serif" font-size="18" letter-spacing="6" opacity=".52">PROFESSIONAL CERTIFICATE</text>
  <text x="96" y="367" fill="#f6f2ea" font-family="Arial, sans-serif" font-size="72" font-weight="600">UI / UX Design</text>
  <text x="96" y="428" fill="#f6f2ea" font-family="Arial, sans-serif" font-size="23" opacity=".56">Research · Interface Design · Prototyping</text>
  <path d="M96 520h500" stroke="#B18D43" stroke-width="2"/>
  <g transform="translate(820 212)" fill="none" stroke="#fff">
    <rect width="240" height="300" rx="28" stroke-opacity=".12"/>
    <rect x="28" y="35" width="184" height="38" rx="8" stroke-opacity=".18"/>
    <rect x="28" y="98" width="82" height="82" rx="12" stroke="#B18D43" stroke-opacity=".7"/>
    <rect x="130" y="98" width="82" height="82" rx="12" stroke-opacity=".14"/>
    <path d="M28 212h184M28 246h122" stroke-opacity=".14"/>
  </g>
</svg>
